# xmcd CD database file
#
# Track frame offsets:
#	150
#	12658
#	26121
#	38796
#	50374
#	62157
#	73672
#	85583
#	98520
#	118259
#	137765
#	157089
#	176209
#	188675
#	201157
#	215389
#	229327
#	243159
#	258668
#
# Disc length: 3654 seconds
#
# Revision: 0
# Processed by: cddbd v1.5.2PL0 Copyright (c) Steve Scherf et al.
# Submitted via: CDex 1.70beta2
#
DISCID=140e4413
DTITLE=Rex Stewart - Jazz Roads CD151 - Swing - Rex Stewart (1936-40)
DYEAR=2006
DGENRE=Jazz
TTITLE0=Rex Stewart And His Fifty+Second Street Stompers  - Rexatious
TTITLE1=Rex Stewart And His Fifty+Second Street Stompers  - Lazy Man's Shuffle
TTITLE2=Rex Stewart And His Fifty+Second Street Stompers  - The Back Room Romp
TTITLE3=Rex Stewart And His Fifty+Second Street Stompers  - Love's In My Heart (Swing, Baby, Swing)
TTITLE4=Rex Stewart And His Fifty+Second Street Stompers  - Sugar Hill Shim Sham
TTITLE5=Rex Stewart And His Fifty+Second Street Stompers  - Tea And Trumpets
TTITLE6=Rex Stewart And His Fifty+Second Street Stompers  - San Juan Hill
TTITLE7=Rex Stewart And His Fifty+Second Street Stompers  - I'll Come Back For More
TTITLE8=Rex Stewart’s Big Seven - Cherry
TTITLE9=Rex Stewart’s Big Seven - Solid Rock
TTITLE10=Rex Stewart’s Big Seven - Bugle Call Rag
TTITLE11=Rex Stewart’s Big Seven - Diga Diga Doo
TTITLE12=Rex Stewart And His Orchestra - Without A Song
TTITLE13=Rex Stewart And His Orchestra - Without A Song
TTITLE14=Rex Stewart And His Orchestra - My Sunday Gal
TTITLE15=Rex Stewart And His Orchestra - Mobile Bay
TTITLE16=Rex Stewart And His Orchestra - Mobile Bay
TTITLE17=Rex Stewart And His Orchestra - Linger Awhile
TTITLE18=Rex Stewart And His Orchestra - Linger Awhile
EXTD=YEAR: 2006
EXTT0=
EXTT1=
EXTT2=
EXTT3=
EXTT4=
EXTT5=
EXTT6=
EXTT7=
EXTT8=
EXTT9=
EXTT10=
EXTT11=
EXTT12=
EXTT13=
EXTT14=
EXTT15=
EXTT16=
EXTT17=
EXTT18=
PLAYORDER=
